<svg width="243" height="39" viewBox="0 0 243 39" fill="none" xmlns="http://www.w3.org/2000/svg">
<path d="M55.6668 34.5V5.94H75.2508V8.5512H58.686V34.5H55.6668ZM58.3596 22.3824V19.7712H73.4556V22.3824H58.3596ZM76.7853 34.5L89.8413 5.94H92.8197L105.876 34.5H102.693L90.6981 7.6944H91.9221L79.9269 34.5H76.7853ZM81.9261 26.8704L82.8237 24.4224H99.4293L100.327 26.8704H81.9261ZM123.829 34.7448C121.68 34.7448 119.695 34.3912 117.872 33.684C116.05 32.9496 114.472 31.9296 113.139 30.624C111.807 29.3184 110.759 27.7816 109.998 26.0136C109.263 24.2456 108.896 22.3144 108.896 20.22C108.896 18.1256 109.263 16.1944 109.998 14.4264C110.759 12.6584 111.807 11.1216 113.139 9.816C114.499 8.5104 116.091 7.504 117.913 6.7968C119.735 6.0624 121.721 5.6952 123.87 5.6952C125.937 5.6952 127.882 6.0488 129.704 6.756C131.527 7.436 133.063 8.4696 134.315 9.8568L132.397 11.7744C131.227 10.5776 129.935 9.7208 128.521 9.204C127.107 8.66 125.583 8.388 123.951 8.388C122.238 8.388 120.647 8.6872 119.178 9.2856C117.709 9.8568 116.431 10.6864 115.343 11.7744C114.255 12.8352 113.398 14.0864 112.772 15.528C112.174 16.9424 111.875 18.5064 111.875 20.22C111.875 21.9336 112.174 23.5112 112.772 24.9528C113.398 26.3672 114.255 27.6184 115.343 28.7064C116.431 29.7672 117.709 30.5968 119.178 31.1952C120.647 31.7664 122.238 32.052 123.951 32.052C125.583 32.052 127.107 31.78 128.521 31.236C129.935 30.692 131.227 29.8216 132.397 28.6248L134.315 30.5424C133.063 31.9296 131.527 32.9768 129.704 33.684C127.882 34.3912 125.923 34.7448 123.829 34.7448ZM146.527 34.5V8.5512H136.491V5.94H159.583V8.5512H149.547V34.5H146.527ZM165.631 34.5V5.94H168.65V34.5H165.631ZM179.166 34.5V5.94H198.75V8.5512H182.186V34.5H179.166ZM181.859 22.3824V19.7712H196.955V22.3824H181.859ZM200.285 34.5L213.341 5.94H216.319L229.375 34.5H226.193L214.198 7.6944H215.422L203.427 34.5H200.285ZM205.426 26.8704L206.323 24.4224H222.929L223.827 26.8704H205.426ZM235.324 34.5V5.94H238.343V34.5H235.324Z" fill="white"/>
<path d="M17.5 7.3125H9.16667C8.50363 7.3125 7.86774 7.56931 7.3989 8.02643C6.93006 8.48355 6.66667 9.10353 6.66667 9.75V26.8125H33.3333V21.125" stroke="white" stroke-width="2" stroke-linecap="round" stroke-linejoin="round"/>
<path d="M3.33333 26.8125H36.6667V28.4375C36.6667 29.7304 36.1399 30.9704 35.2022 31.8846C34.2645 32.7989 32.9928 33.3125 31.6667 33.3125H8.33333C7.00725 33.3125 5.73548 32.7989 4.7978 31.8846C3.86012 30.9704 3.33333 29.7304 3.33333 28.4375V26.8125Z" stroke="white" stroke-width="2" stroke-linejoin="round"/>
<path d="M22.0007 6.32844C21.8813 6.39691 21.7846 6.4991 21.723 6.62222C21.6613 6.74534 21.6373 6.88391 21.654 7.0206L22.7118 18.3728C22.7794 18.924 23.4313 19.1809 23.8566 18.8239L25.8467 17.1537L26.8477 18.8876C27.4234 19.8845 28.5795 19.9894 29.5763 19.4137C30.5735 18.838 31.0607 17.7845 30.485 16.7876L29.4875 15.0598L31.8905 14.1855C32.4123 13.9955 32.5157 13.3028 32.0722 12.9686L22.7698 6.37632C22.6603 6.29398 22.5291 6.24556 22.3924 6.23705C22.2557 6.22854 22.1196 6.26032 22.0007 6.32844ZM23.2437 8.48556L30.1996 13.3109L27.4397 14.3152L27.4526 14.3352L29.2726 17.4876C29.4725 17.8338 29.2228 18.0014 28.8764 18.2013C28.5301 18.4012 28.2601 18.5338 28.0602 18.1876L26.2402 15.0352L26.2258 15.0075L23.9446 16.9222L23.2437 8.48556Z" fill="white"/>
</svg>
