<svg width="127" height="19" viewBox="0 0 127 19" fill="none" xmlns="http://www.w3.org/2000/svg">
<path fill-rule="evenodd" clip-rule="evenodd" d="M5.13625 9.40724C4.828 9.18786 4.675 9.07761 4.522 9.06411C4.38818 9.05213 4.25449 9.08845 4.14512 9.16648C4.02137 9.25648 3.94375 9.42861 3.79075 9.77398L0.371875 17.4656C0.0984999 18.0821 -0.0387503 18.3904 0.0197497 18.5884C0.044574 18.6733 0.0890955 18.7512 0.149695 18.8157C0.210294 18.8802 0.28526 18.9295 0.3685 18.9596C0.563125 19.0294 0.87925 18.9101 1.51038 18.6739L8.18387 16.1707C8.30087 16.1269 8.35938 16.1055 8.42013 16.0965C8.47347 16.0888 8.52765 16.0888 8.581 16.0965C8.64062 16.1055 8.69913 16.1269 8.81613 16.1707L15.4896 18.6739C16.1207 18.9101 16.4369 19.0294 16.6315 18.9585C16.7146 18.9285 16.7895 18.8794 16.8501 18.8151C16.9107 18.7508 16.9553 18.6731 16.9803 18.5884C17.0388 18.3904 16.9015 18.0821 16.6281 17.4656L13.2093 9.77398C13.0563 9.42861 12.9797 9.25648 12.8549 9.16648C12.7454 9.08884 12.6117 9.05293 12.478 9.06523C12.325 9.07761 12.172 9.18786 11.8637 9.40724L9.15362 11.3422C8.96288 11.4784 8.73436 11.5516 8.5 11.5516C8.26564 11.5516 8.03712 11.4784 7.84637 11.3422L5.13625 9.40724ZM5.19363 6.61723C5.18737 6.63143 5.18619 6.64734 5.19029 6.66229C5.19439 6.67725 5.20351 6.69034 5.21613 6.69936L7.97687 8.67149C8.16475 8.80649 8.25925 8.87398 8.36162 8.89873C8.45244 8.92178 8.54757 8.92178 8.63838 8.89873C8.74075 8.87286 8.83525 8.80649 9.02312 8.67149L11.7839 6.69936C11.7967 6.69029 11.806 6.677 11.8102 6.6618C11.8143 6.64659 11.8129 6.63043 11.8064 6.61611L9.32125 1.02823C9.06025 0.44211 8.93087 0.148485 8.74862 0.058485C8.67099 0.0200154 8.58552 0 8.49887 0C8.41223 0 8.32676 0.0200154 8.24913 0.058485C8.06688 0.148485 7.9375 0.440985 7.67538 1.02823L5.19363 6.61723Z" fill="white"/>
<path d="M27.195 17V2.3H38.388V5.24H30.429V8.369H37.443V11.309H30.429V17H27.195ZM38.2446 17L44.5446 2.195H47.5266L53.8266 17H50.4456L49.1016 13.703H42.8856L41.5416 17H38.2446ZM44.0406 10.847H47.9466L45.9936 6.08L44.0406 10.847ZM62.2501 17.252C57.9241 17.252 54.7111 13.913 54.7111 9.692V9.65C54.7111 5.471 57.8611 2.048 62.3761 2.048C65.1481 2.048 66.8071 2.972 68.1721 4.316L66.1141 6.689C64.9801 5.66 63.8251 5.03 62.3551 5.03C59.8771 5.03 58.0921 7.088 58.0921 9.608V9.65C58.0921 12.17 59.8351 14.27 62.3551 14.27C64.0351 14.27 65.0641 13.598 66.2191 12.548L68.2771 14.627C66.7651 16.244 65.0851 17.252 62.2501 17.252ZM74.499 17V5.282H70.026V2.3H82.206V5.282H77.733V17H74.499ZM85.0502 17V2.3H88.2842V17H85.0502ZM92.1679 17V2.3H103.361V5.24H95.4019V8.369H102.416V11.309H95.4019V17H92.1679ZM103.217 17L109.517 2.195H112.499L118.799 17H115.418L114.074 13.703H107.858L106.514 17H103.217ZM109.013 10.847H112.919L110.966 6.08L109.013 10.847ZM121.425 17V2.3H124.659V17H121.425Z" fill="white"/>
</svg>
